<?xml version="1.0" encoding="utf-8"?>
<!-- Generator: Adobe Illustrator 28.1.0, SVG Export Plug-In . SVG Version: 6.00 Build 0)  -->
<svg version="1.1" id="Layer_1" xmlns="http://www.w3.org/2000/svg" xmlns:xlink="http://www.w3.org/1999/xlink" x="0px" y="0px"
	 viewBox="0 0 60.9 60.9" style="enable-background:new 0 0 60.9 60.9;" xml:space="preserve">
<style type="text/css">
	.st0{display:none;}
</style>
<g>
	<path class="st0" d="M49.8,7.7c2.1,0,3.8,1.7,3.8,3.7v38.9c0,2-1.7,3.7-3.8,3.7H11.1c-2.1,0-3.8-1.7-3.8-3.7V11.4
		c0-2,1.7-3.7,3.8-3.7H49.8 M13.4,51.5h34c2,0,3.6-1.6,3.6-3.6V13.7c0-2-1.6-3.6-3.6-3.6h-34c-2,0-3.6,1.6-3.6,3.6v34.2
		C9.8,49.9,11.4,51.5,13.4,51.5 M49.8,6.7H11.1c-2.6,0-4.8,2.1-4.8,4.7v38.9c0,2.6,2.1,4.7,4.8,4.7h38.7c2.6,0,4.8-2.1,4.8-4.7V11.4
		C54.6,8.8,52.4,6.7,49.8,6.7L49.8,6.7z M13.4,50.5c-1.5,0-2.7-1.2-2.7-2.6V13.7c0-1.4,1.2-2.6,2.7-2.6h34c1.5,0,2.7,1.2,2.7,2.6
		v34.2c0,1.4-1.2,2.6-2.7,2.6H13.4L13.4,50.5z"/>
	<g>
		<path d="M48.7,7.5c2.7,0,4.9,2.2,4.9,4.9V49c0,2.7-2.2,4.9-4.9,4.9H11.8c-2.7,0-4.9-2.2-4.9-4.9V12.4c0-2.7,2.2-4.9,4.9-4.9H48.7
			 M48.7,6.2H11.8c-3.4,0-6.2,2.8-6.2,6.2V49c0,3.4,2.8,6.2,6.2,6.2h36.9c3.4,0,6.2-2.8,6.2-6.2V12.4C54.8,9,52.1,6.2,48.7,6.2
			L48.7,6.2z"/>
		<path d="M47.6,10c1.9,0,3.4,1.5,3.4,3.4V48c0,1.9-1.5,3.4-3.4,3.4H12.9c-1.9,0-3.4-1.5-3.4-3.4V13.4c0-1.9,1.5-3.4,3.4-3.4H47.6
			 M47.6,8.8H12.9c-2.5,0-4.6,2.1-4.6,4.6V48c0,2.5,2.1,4.6,4.6,4.6h34.7c2.5,0,4.6-2.1,4.6-4.6V13.4C52.2,10.9,50.2,8.8,47.6,8.8
			L47.6,8.8z"/>
	</g>
	<path d="M26.7,3.2L2.8,27c-2.1,2.1-2.1,5.5,0,7.6l23.9,23.9c2.1,2.1,5.5,2.1,7.6,0l23.9-23.9c2.1-2.1,2.1-5.5,0-7.6L34.2,3.2
		C32.1,1.1,28.8,1.1,26.7,3.2z M56.9,27.7c1.7,1.7,1.7,4.5,0,6.2L33.5,57.3c-1.7,1.7-4.5,1.7-6.2,0L4,33.9c-1.7-1.7-1.7-4.5,0-6.2
		L27.4,4.4c1.7-1.7,4.5-1.7,6.2,0L56.9,27.7z"/>
</g>
</svg>
